<svg width="32" height="32" viewBox="0 0 32 32" fill="none" xmlns="http://www.w3.org/2000/svg">
<g clip-path="url(#clip0_4002_130)">
<path d="M11.1477 1.05225C7.95043 2.16142 5.19309 4.26667 3.28071 7.05876C1.36833 9.85085 0.401709 13.1826 0.522836 16.5647C0.643964 19.9467 1.84645 23.2008 3.95367 25.8489C6.06089 28.4971 8.96178 30.3997 12.2302 31.2773C14.88 31.961 17.6563 31.991 20.3202 31.3648C22.7335 30.8227 24.9647 29.6632 26.7952 27.9998C28.7004 26.2156 30.0833 23.9459 30.7952 21.4348C31.5688 18.7039 31.7065 15.8321 31.1977 13.0398H16.3177V19.2123H24.9352C24.763 20.1967 24.3939 21.1363 23.8501 21.9748C23.3063 22.8133 22.5989 23.5335 21.7702 24.0923C20.7181 24.7886 19.5318 25.257 18.2877 25.4673C17.0401 25.6993 15.7604 25.6993 14.5127 25.4673C13.2481 25.2061 12.0518 24.6842 11.0002 23.9348C9.3106 22.7387 8.04192 21.0396 7.37523 19.0798C6.69745 17.0832 6.69745 14.9188 7.37523 12.9223C7.8498 11.5228 8.63431 10.2486 9.67023 9.19475C10.8557 7.96662 12.3566 7.08874 14.0081 6.65744C15.6597 6.22614 17.3981 6.25808 19.0327 6.74975C20.3097 7.14156 21.4775 7.82645 22.4427 8.74975C23.4144 7.78309 24.3844 6.81392 25.3527 5.84225C25.8527 5.31975 26.3977 4.82225 26.8902 4.28725C25.4166 2.91605 23.6869 1.84901 21.8002 1.14725C18.3645 -0.100274 14.6052 -0.1338 11.1477 1.05225Z" fill="white"/>
<path d="M11.1479 1.05249C14.6051 -0.134368 18.3644 -0.101725 21.8004 1.14499C23.6874 1.85152 25.4163 2.92369 26.8879 4.29999C26.3879 4.83499 25.8604 5.33499 25.3504 5.85499C24.3804 6.82332 23.4113 7.78832 22.4429 8.74999C21.4777 7.82668 20.3099 7.1418 19.0329 6.74999C17.3989 6.25659 15.6605 6.22281 14.0085 6.65235C12.3565 7.08188 10.8547 7.95814 9.66793 9.18499C8.63201 10.2388 7.8475 11.513 7.37293 12.9125L2.19043 8.89999C4.04545 5.22139 7.2573 2.40755 11.1479 1.05249Z" fill="#E33629"/>
<path d="M0.814876 12.8744C1.09322 11.4938 1.55569 10.1569 2.18988 8.89941L7.37238 12.9219C6.6946 14.9185 6.6946 17.0829 7.37238 19.0794C5.64571 20.4127 3.91821 21.7527 2.18988 23.0994C0.602752 19.9402 0.118707 16.3407 0.814876 12.8744Z" fill="#FFB546"/>
<path d="M16.3175 13.0381H31.1975C31.7062 15.8304 31.5685 18.7022 30.795 21.4331C30.0831 23.9443 28.7002 26.214 26.795 27.9981C25.1225 26.6931 23.4425 25.3981 21.77 24.0931C22.5992 23.5338 23.3069 22.8128 23.8508 21.9734C24.3946 21.134 24.7634 20.1934 24.935 19.2081H16.3175C16.315 17.1531 16.3175 15.0956 16.3175 13.0381Z" fill="#587DBD"/>
<path d="M2.18747 23.1001C3.9158 21.7667 5.6433 20.4267 7.36997 19.0801C8.03799 21.0406 9.30848 22.7398 11 23.9351C12.0548 24.681 13.2537 25.1987 14.52 25.4551C15.7676 25.6871 17.0473 25.6871 18.295 25.4551C19.539 25.2448 20.7253 24.7764 21.7775 24.0801C23.45 25.3851 25.13 26.6801 26.8025 27.9851C24.9722 29.6494 22.741 30.8098 20.3275 31.3526C17.6635 31.9788 14.8873 31.9488 12.2375 31.2651C10.1417 30.7055 8.18416 29.7191 6.48747 28.3676C4.69179 26.9416 3.22506 25.1449 2.18747 23.1001Z" fill="#319F43"/>
</g>
<defs>
<clipPath id="clip0_4002_130">
<rect width="32" height="32" rx="15" fill="white"/>
</clipPath>
</defs>
</svg>
