<svg width="24" height="24" viewBox="0 0 24 24" fill="none" xmlns="http://www.w3.org/2000/svg">
<path d="M9.343 18.7824L7.41099 18.2644L8.19799 15.3254C7.02006 14.8907 5.92525 14.2575 4.96099 13.4534L2.80799 15.6074L1.39399 14.1934L3.54699 12.0394C2.33119 10.583 1.51421 8.83607 1.17599 6.96935L3.14399 6.61035C3.52145 8.68416 4.61467 10.5598 6.23312 11.9102C7.85158 13.2607 9.89262 14.0004 12.0005 14.0004C14.1084 14.0004 16.1494 13.2607 17.7679 11.9102C19.3863 10.5598 20.4795 8.68416 20.857 6.61035L22.825 6.96835C22.4866 8.83552 21.6693 10.5829 20.453 12.0394L22.607 14.1934L21.193 15.6074L19.039 13.4534C18.0747 14.2575 16.9799 14.8907 15.802 15.3254L16.59 18.2654L14.658 18.7824L13.87 15.8424C12.6325 16.0558 11.3675 16.0558 10.13 15.8424L9.343 18.7824Z" fill="black"/>
</svg>
